<svg width="329" height="258" viewBox="0 0 329 258" fill="none" xmlns="http://www.w3.org/2000/svg">
<path d="M39.5944 135.376V163.153C39.5944 166.339 38.7836 169.105 37.162 171.51C35.608 173.854 33.3107 175.718 30.2701 176.981C27.2972 178.243 23.7161 178.905 19.5945 178.905C13.3783 178.905 8.58104 177.462 5.13511 174.636C1.68918 171.81 0 167.962 0 163.032V135.376H10.2027V161.65C10.2027 164.956 10.9459 167.421 12.4324 168.924C13.9189 170.488 16.4189 171.269 19.8648 171.269C23.1756 171.269 25.608 170.488 27.162 168.924C28.6485 167.361 29.3918 164.956 29.3918 161.59V135.376H39.5944Z" fill="#153C68"/>
<path d="M51.4073 178.303V135.376H61.61V170.788H81.2045V178.303H51.4073Z" fill="#153C68"/>
<path d="M108.164 178.303H97.9611V142.952H84.853V135.376H121.272V142.952H108.164V178.303Z" fill="#153C68"/>
<path d="M138.913 135.376H128.71V178.303H138.913V135.376Z" fill="#153C68"/>
<path d="M171.485 178.303L159.864 144.635H159.594C159.999 151.489 160.202 156.058 160.202 158.343V178.303H151.08V135.376H164.999L176.418 168.203H176.621L188.715 135.376H202.634V178.303H193.107V157.982C193.107 157.02 193.107 155.938 193.174 154.676C193.174 153.413 193.31 150.106 193.58 144.695H193.31L180.877 178.303H171.485Z" fill="#153C68"/>
<path d="M244.312 178.303L240.799 168.083H223.231L219.718 178.303H208.704L225.731 135.196H238.231L255.326 178.303H244.312ZM238.366 160.447C235.123 151.188 233.299 145.958 232.893 144.755C232.488 143.553 232.218 142.591 232.015 141.869C231.272 144.395 229.245 150.587 225.799 160.447H238.366Z" fill="#153C68"/>
<path d="M279.982 178.303H269.78V142.952H256.672V135.376H293.09V142.952H279.982V178.303Z" fill="#153C68"/>
<path d="M328.304 178.303H300.534V135.376H328.304V142.832H310.737V152.271H327.088V159.726H310.737V170.788H328.304V178.303Z" fill="#153C68"/>
<path fill-rule="evenodd" clip-rule="evenodd" d="M164.15 0L227.378 0.0275179C232.107 19.3469 255.061 31.796 285.852 31.9898C288.051 55.0464 284.056 82.5382 278.419 111.252L259.627 111.075C263.737 91.5308 266.403 71.9429 266.167 48.3292C238.984 43.3337 224.817 31.9501 216.8 18.1514L164.187 18.1734L164.15 0L164.113 18.1734L111.5 18.1514C103.483 31.9501 89.3161 43.3337 62.1329 48.3292C61.8968 71.9429 64.5619 91.5308 68.6725 111.075L49.8811 111.252C44.2424 82.5382 40.2476 55.0464 42.4483 31.9898C73.2376 31.796 96.1932 19.3469 100.922 0.0275179L164.15 0Z" fill="#153C68"/>
<path fill-rule="evenodd" clip-rule="evenodd" d="M163.729 257.843C127.965 244.435 102.365 222.406 84.6515 197.135H107.637C120.669 213.294 139.624 227.702 164.15 238.633L164.723 238.375C188.972 227.476 207.732 213.168 220.663 197.135H243.649C225.865 222.506 200.133 244.608 164.15 258L163.729 257.843Z" fill="#153C68"/>
<path fill-rule="evenodd" clip-rule="evenodd" d="M142.538 44.7272L122.086 53.9342L142.538 63.1412L162.99 53.9342L142.538 44.7272Z" fill="#153C68"/>
<path fill-rule="evenodd" clip-rule="evenodd" d="M186.226 44.7272L165.774 53.9342L186.226 63.1412L206.678 53.9342L186.226 44.7272Z" fill="#153C68"/>
<path fill-rule="evenodd" clip-rule="evenodd" d="M164.382 73.3486L143.93 82.5555L164.382 91.7625L184.834 82.5555L164.382 73.3486Z" fill="#153C68"/>
<path fill-rule="evenodd" clip-rule="evenodd" d="M142.075 63.7681L121.622 54.5604L121.629 72.9691L142.075 82.2111C142.075 79.3078 142.075 73.2115 142.075 63.7681Z" fill="#153C68"/>
<path fill-rule="evenodd" clip-rule="evenodd" d="M185.772 63.7681L165.32 54.5604L165.326 72.9691L185.772 82.2111C185.772 79.3078 185.772 73.2115 185.772 63.7681Z" fill="#153C68"/>
<path fill-rule="evenodd" clip-rule="evenodd" d="M163.919 92.39L143.466 83.1824L143.473 101.591L163.919 110.833C163.919 107.93 163.919 101.833 163.919 92.39Z" fill="#153C68"/>
</svg>
