<svg width="20" height="20" fill="none" xmlns="http://www.w3.org/2000/svg"><path d="M4.167 8.333h-.833a1.667 1.667 0 0 1-1.667-1.666V3.333a1.667 1.667 0 0 1 1.667-1.666h13.333a1.667 1.667 0 0 1 1.667 1.666v3.334a1.667 1.667 0 0 1-1.667 1.666h-.833M4.167 11.667h-.833a1.667 1.667 0 0 0-1.667 1.666v3.334a1.667 1.667 0 0 0 1.667 1.666h13.333a1.667 1.667 0 0 0 1.667-1.666v-3.334a1.667 1.667 0 0 0-1.667-1.666h-.833M5 5h.008M5 15h.008" stroke="#4B5563" stroke-width="1.25" stroke-linecap="round" stroke-linejoin="round"/><path d="M10 12.5a2.5 2.5 0 1 0 0-5 2.5 2.5 0 0 0 0 5zM10 6.667V7.5M10 12.5v.833M13.333 10H12.5M7.5 10h-.833M12.5 7.5l-.733.733M8.233 11.767 7.5 12.5M12.5 12.5l-.733-.733M8.233 8.233 7.5 7.5" stroke="#4B5563" stroke-width="1.25" stroke-linecap="round" stroke-linejoin="round"/></svg>