<svg width="20" height="20" fill="none" xmlns="http://www.w3.org/2000/svg"><path d="M16.666 1.667H3.333c-.92 0-1.667.746-1.667 1.666v3.334c0 .92.747 1.666 1.667 1.666h13.334c.92 0 1.666-.746 1.666-1.666V3.333c0-.92-.746-1.666-1.666-1.666zM16.666 11.667H3.333c-.92 0-1.667.746-1.667 1.666v3.334c0 .92.747 1.666 1.667 1.666h13.334c.92 0 1.666-.746 1.666-1.666v-3.334c0-.92-.746-1.666-1.666-1.666zM5 5h.008M5 15h.008M8.334 5H15M8.334 15H15" stroke="#111827" stroke-width="1.25" stroke-linecap="round" stroke-linejoin="round"/></svg>