<svg width="20" height="20" fill="none" xmlns="http://www.w3.org/2000/svg"><path fill-rule="evenodd" clip-rule="evenodd" d="M10 20c5.523 0 10-4.477 10-10S15.523 0 10 0 0 4.477 0 10s4.477 10 10 10zM9.879 4.436l-2.54 5.362-2.54 5.363h2.177l2.056-4.153 2.057-4.153-1.21-2.42zm1.21 6.612c.348-.726.697-1.451 1.048-2.177.512 1.048 1.022 2.097 1.532 3.145s1.02 2.097 1.532 3.145h-2.338c-.133-.31-.268-.619-.403-.927-.136-.309-.27-.617-.404-.928H10l.04-.08c.351-.726.7-1.452 1.049-2.178z" fill="url(#a)"/><defs><linearGradient id="a" x1="20" y1="0" x2="0" y2="20" gradientUnits="userSpaceOnUse"><stop stop-color="#B147E1"/><stop offset="1" stop-color="#5236DD"/></linearGradient></defs></svg>