<svg width="20" height="20" fill="none" xmlns="http://www.w3.org/2000/svg"><path d="M7.5 5.532v11.551m5-14.583v11.667m-10-6.909c0-1.228 0-1.841.328-2.2a1.25 1.25 0 0 1 .414-.3c.443-.196 1.026-.002 2.19.386.89.297 1.334.445 1.784.43a2.5 2.5 0 0 0 .49-.066c.437-.104.827-.364 1.607-.883l1.152-.768c1-.667 1.5-1 2.072-1.076.574-.078 1.144.112 2.283.492l.97.324c.826.275 1.238.412 1.474.74.236.327.236.763.236 1.631v6.774c0 1.228 0 1.842-.328 2.2a1.25 1.25 0 0 1-.414.299c-.443.197-1.025.003-2.19-.385-.89-.297-1.334-.445-1.784-.43-.165.006-.329.028-.49.066-.437.104-.827.364-1.607.883l-1.152.768c-1 .667-1.5 1-2.072 1.076-.574.078-1.144-.112-2.283-.492l-.97-.324c-.826-.275-1.238-.412-1.474-.74-.236-.327-.236-.763-.236-1.631V7.258z" stroke="#0017E1" stroke-width="1.25"/></svg>