<svg width="20" height="20" fill="none" xmlns="http://www.w3.org/2000/svg"><g clip-path="url(#a)" stroke="#111827" stroke-width="1.25" stroke-linecap="round" stroke-linejoin="round"><path d="M15.833 2.5H4.167c-.92 0-1.667.746-1.667 1.667v11.666c0 .92.746 1.667 1.667 1.667h11.666c.92 0 1.667-.746 1.667-1.667V4.167c0-.92-.746-1.667-1.667-1.667z"/><path d="m8.5 9.5-3 3V14H10l1.5-1.5"/><path d="m15 10-2.3 2.3a1 1 0 0 1-1.4 0L8.7 9.7a1 1 0 0 1 0-1.4L11 6"/></g><defs><clipPath id="a"><path fill="#fff" d="M0 0h20v20H0z"/></clipPath></defs></svg>