<svg width="20" height="20" fill="none" xmlns="http://www.w3.org/2000/svg"><path d="M9.167 14.167a3.333 3.333 0 0 1-6.667 0v-10A1.667 1.667 0 0 1 4.167 2.5H7.5a1.667 1.667 0 0 1 1.667 1.667v10z" stroke="#4B5563" stroke-width="1.25" stroke-linecap="round" stroke-linejoin="round"/><path d="M13.917 10.833h1.917A1.667 1.667 0 0 1 17.5 12.5v3.333a1.666 1.666 0 0 1-1.666 1.667h-10M5.833 14.167h.009" stroke="#4B5563" stroke-width="1.25" stroke-linecap="round" stroke-linejoin="round"/><path d="m9.167 6.667 1.916-1.917a2 2 0 0 1 2.837.003l1.58 1.58a2 2 0 0 1 .022 2.862L8.25 16.5" stroke="#4B5563" stroke-width="1.25" stroke-linecap="round" stroke-linejoin="round"/></svg>