<svg width="20" height="20" fill="none" xmlns="http://www.w3.org/2000/svg"><g clip-path="url(#a)" stroke="#111827" stroke-linecap="round" stroke-linejoin="round"><path d="M15.833 2.5H4.167c-.92 0-1.667.746-1.667 1.667v11.666c0 .92.746 1.667 1.667 1.667h11.666c.92 0 1.667-.746 1.667-1.667V4.167c0-.92-.746-1.667-1.667-1.667z" stroke-width="1.25"/><path d="M12.333 8H7.667A.667.667 0 0 0 7 8.667v4.666c0 .368.298.667.667.667h4.666a.667.667 0 0 0 .667-.667V8.667A.667.667 0 0 0 12.333 8z"/><path d="M9 10.5a.5.5 0 1 0 0-1 .5.5 0 0 0 0 1zM13 11.829l-1.029-1.117a.64.64 0 0 0-.471-.212.64.64 0 0 0-.471.212L8 14M14 6l1 1-1 1M6 6 5 7l1 1"/></g><defs><clipPath id="a"><path fill="#fff" d="M0 0h20v20H0z"/></clipPath></defs></svg>