<svg width="20" height="20" fill="none" xmlns="http://www.w3.org/2000/svg"><path d="M10.028 10.568a.415.415 0 0 1 .54-.54l7.5 2.917a.416.416 0 0 1-.028.786l-2.87.89a.835.835 0 0 0-.55.55l-.89 2.869a.417.417 0 0 1-.785.027l-2.917-7.5z" stroke="#111827" stroke-width="1.25" stroke-linecap="round" stroke-linejoin="round"/><path d="M17.5 9.167v-5A1.667 1.667 0 0 0 15.833 2.5H4.167A1.667 1.667 0 0 0 2.5 4.167v11.666A1.666 1.666 0 0 0 4.167 17.5h5" stroke="#111827" stroke-width="1.25" stroke-linecap="round" stroke-linejoin="round"/></svg>