<svg width="20" height="20" fill="none" xmlns="http://www.w3.org/2000/svg"><g clip-path="url(#a)" stroke="#111827" stroke-width="1.25" stroke-linecap="round" stroke-linejoin="round"><path d="M15.416.833h-7.5a3.75 3.75 0 0 0-3.75 3.75v7.5a3.75 3.75 0 0 0 3.75 3.75h7.5a3.75 3.75 0 0 0 3.75-3.75v-7.5a3.75 3.75 0 0 0-3.75-3.75z"/><path d="M7.962 14.987a3.5 3.5 0 1 1-6.924 1.026 3.5 3.5 0 0 1 6.924-1.026zM16 5H8M13 8H7M16 11h-6"/></g><defs><clipPath id="a"><path fill="#fff" d="M0 0h20v20H0z"/></clipPath></defs></svg>