<svg width="31" height="25" viewBox="0 0 31 25" fill="none" xmlns="http://www.w3.org/2000/svg">
<g clip-path="url(#clip0_2_15196)">
<path d="M4.33406 13.3166V15.9005C4.33406 16.1969 4.26013 16.4542 4.11226 16.6779C3.97056 16.896 3.76108 17.0694 3.48382 17.1869C3.21274 17.3043 2.88619 17.3658 2.51037 17.3658C1.94354 17.3658 1.5061 17.2316 1.19188 16.9687C0.877661 16.7058 0.723633 16.3479 0.723633 15.8893V13.3166H1.65397V15.7607C1.65397 16.0683 1.72174 16.2976 1.85729 16.4374C1.99283 16.5829 2.2208 16.6555 2.53501 16.6555C2.83691 16.6555 3.05871 16.5829 3.20041 16.4374C3.33596 16.292 3.40374 16.0683 3.40374 15.7551V13.3166H4.33406Z" fill="#0017E1"/>
<path d="M5.41101 17.3098V13.3166H6.34135V16.6108H8.12808V17.3098H5.41101Z" fill="#0017E1"/>
<path d="M10.5867 17.3098H9.65633V14.0214H8.46106V13.3166H11.7819V14.0214H10.5867V17.3098Z" fill="#0017E1"/>
<path d="M13.3904 13.3166H12.4601V17.3098H13.3904V13.3166Z" fill="#0017E1"/>
<path d="M16.3606 17.3098L15.301 14.1779H15.2764C15.3133 14.8155 15.3318 15.2405 15.3318 15.4531V17.3098H14.5V13.3166H15.7692L16.8105 16.3703H16.829L17.9318 13.3166H19.201V17.3098H18.3322V15.4195C18.3322 15.33 18.3322 15.2294 18.3384 15.112C18.3384 14.9945 18.3508 14.6869 18.3754 14.1835H18.3508L17.2171 17.3098H16.3606Z" fill="#0017E1"/>
<path d="M23.0012 17.3098L22.6809 16.3591H21.0789L20.7586 17.3098H19.7543L21.3069 13.2999H22.4467L24.0055 17.3098H23.0012ZM22.459 15.6488C22.1633 14.7875 21.997 14.301 21.96 14.1891C21.923 14.0773 21.8984 13.9878 21.8799 13.9206C21.8121 14.1556 21.6273 14.7316 21.3131 15.6488H22.459Z" fill="#0017E1"/>
<path d="M26.2539 17.3098H25.3237V14.0214H24.1284V13.3166H27.4492V14.0214H26.2539V17.3098Z" fill="#0017E1"/>
<path d="M30.6603 17.3098H28.1281V13.3166H30.6603V14.0102H29.0584V14.8883H30.5494V15.5818H29.0584V16.6108H30.6603V17.3098Z" fill="#0017E1"/>
<path fill-rule="evenodd" clip-rule="evenodd" d="M15.6916 0.723526L21.457 0.726086C21.8882 2.52324 23.9813 3.68129 26.789 3.69932C26.9895 5.84412 26.6252 8.4015 26.1112 11.0725L24.3977 11.0561C24.7724 9.23802 25.0155 7.41589 24.994 5.21927C22.5153 4.75457 21.2235 3.69563 20.4925 2.41203L15.6949 2.41407L15.6916 0.723526L15.6882 2.41407L10.8906 2.41203C10.1596 3.69563 8.86779 4.75457 6.38908 5.21927C6.36755 7.41589 6.61057 9.23802 6.9854 11.0561L5.2719 11.0725C4.75773 8.4015 4.39346 5.84412 4.59413 3.69932C7.40167 3.68129 9.49489 2.52324 9.92608 0.726086L15.6916 0.723526Z" fill="#0017E1"/>
<path fill-rule="evenodd" clip-rule="evenodd" d="M15.6533 24.7089C12.3922 23.4617 10.0578 21.4125 8.44263 19.0617H10.5386C11.7269 20.5648 13.4553 21.9051 15.6917 22.922L15.744 22.898C17.9551 21.8841 19.6658 20.5531 20.8449 19.0617H22.9409C21.3192 21.4218 18.9729 23.4778 15.6917 24.7235L15.6533 24.7089Z" fill="#0017E1"/>
<path fill-rule="evenodd" clip-rule="evenodd" d="M13.721 4.88419L11.8561 5.74066L13.721 6.59712L15.5859 5.74066L13.721 4.88419Z" fill="#0017E1"/>
<path fill-rule="evenodd" clip-rule="evenodd" d="M17.7048 4.88419L15.8398 5.74066L17.7048 6.59712L19.5697 5.74066L17.7048 4.88419Z" fill="#0017E1"/>
<path fill-rule="evenodd" clip-rule="evenodd" d="M15.7128 7.54665L13.8479 8.4031L15.7128 9.25957L17.5777 8.4031L15.7128 7.54665Z" fill="#0017E1"/>
<path fill-rule="evenodd" clip-rule="evenodd" d="M13.6786 6.65542L11.8136 5.79889L11.8142 7.51133L13.6786 8.37105C13.6786 8.10097 13.6786 7.53388 13.6786 6.65542Z" fill="#0017E1"/>
<path fill-rule="evenodd" clip-rule="evenodd" d="M17.6634 6.65542L15.7985 5.79889L15.799 7.51133L17.6634 8.37105C17.6634 8.10097 17.6634 7.53388 17.6634 6.65542Z" fill="#0017E1"/>
<path fill-rule="evenodd" clip-rule="evenodd" d="M15.6707 9.31795L13.8057 8.46143L13.8063 10.1739L15.6707 11.0336C15.6707 10.7635 15.6707 10.1964 15.6707 9.31795Z" fill="#0017E1"/>
</g>
<defs>
<clipPath id="clip0_2_15196">
<rect width="30" height="24" fill="white" transform="translate(0.723511 0.723537)"/>
</clipPath>
</defs>
</svg>
