<svg width="20" height="20" fill="none" xmlns="http://www.w3.org/2000/svg"><path d="M1.667 6.667v9.166c0 .917.75 1.667 1.666 1.667H15" stroke="#111827" stroke-width="1.25" stroke-linecap="round" stroke-linejoin="round"/><path d="M16.852 1.667H6.482C5.662 1.667 5 2.33 5 3.148v10.37C5 14.337 5.663 15 6.481 15h10.37c.82 0 1.482-.663 1.482-1.482V3.149c0-.818-.663-1.481-1.481-1.481z" stroke="#111827" stroke-width="1.25" stroke-linecap="round" stroke-linejoin="round"/><path d="M9.583 7.5a1.25 1.25 0 1 0 0-2.5 1.25 1.25 0 0 0 0 2.5zM18.333 10.347l-2.228-2.393a1.396 1.396 0 0 0-1.022-.454c-.383 0-.75.163-1.02.454L7.5 15" stroke="#111827" stroke-width="1.25" stroke-linecap="round" stroke-linejoin="round"/></svg>