<svg width="20" height="20" fill="none" xmlns="http://www.w3.org/2000/svg"><path d="M1.667 6.667V5a1.667 1.667 0 0 1 1.666-1.667h13.334A1.667 1.667 0 0 1 18.333 5v10a1.667 1.667 0 0 1-1.666 1.667h-5M1.667 10a7.5 7.5 0 0 1 6.666 6.667M1.667 13.333A4.167 4.167 0 0 1 5 16.667M1.667 16.667h.008" stroke="#111827" stroke-width="1.25" stroke-linecap="round" stroke-linejoin="round"/><path d="M14.167 9.167a.833.833 0 1 0 0-1.667.833.833 0 0 0 0 1.667z" stroke="#111827" stroke-linecap="round" stroke-linejoin="round"/></svg>