<svg width="20" height="20" fill="none" xmlns="http://www.w3.org/2000/svg"><path fill-rule="evenodd" clip-rule="evenodd" d="M18.667 14.667V5.333H1.333v9.334h17.334zM20 5.333v9.334c0 .736-.597 1.333-1.333 1.333H1.333A1.333 1.333 0 0 1 0 14.667V5.333C0 4.597.597 4 1.333 4h17.334C19.403 4 20 4.597 20 5.333zM2.667 7c0-.184.149-.333.333-.333h4.667C7.85 6.667 8 6.816 8 7v6c0 .184-.15.333-.333.333H3A.333.333 0 0 1 2.667 13V7zM10 9.333a.667.667 0 0 0 0 1.334h4a.667.667 0 0 0 0-1.334h-4zm-.667 3.334c0-.368.299-.667.667-.667h6.667a.667.667 0 0 1 0 1.333H10a.667.667 0 0 1-.667-.666zm.667-6A.667.667 0 0 0 10 8h5.333a.667.667 0 1 0 0-1.333H10z" fill="#111827"/></svg>