<svg width="48" height="48" fill="none" xmlns="http://www.w3.org/2000/svg"><path d="m31.477 23.832 13.739-7.991v15.981l-13.739-7.99z" fill="#3A30E5"/><path d="m31.477 7.991 13.739 7.991-13.739 7.99V7.993z" fill="#3058E5"/><path d="M31.477 7.991v15.842l-13.739-7.991 13.739-7.85z" fill="#4067EE"/><path d="M31.617 7.99 17.88 15.983V0l13.738 7.99z" fill="#476EF9"/><path d="M17.738 15.981v15.982L4 23.973l13.738-7.992z" fill="#624AF6"/><path d="M17.738 0v15.982L4 7.99 17.738 0z" fill="#4067EE"/><path d="M17.738 31.823v15.982L4 39.814l13.738-7.99z" fill="#7C3AED"/><path d="m31.477 23.832 13.739 7.99-13.739 7.992V23.832z" fill="#4F46E5"/><path d="m4 23.832 13.738 7.99L4 39.815V23.832z" fill="#814AF7"/><path d="m4 7.991 13.738 7.991L4 23.972V7.993z" fill="#3058E5"/><path d="M31.477 23.832v15.982l-13.739-7.991 13.739-7.991z" fill="#624AF6"/><path d="m31.477 23.832 13.739-7.991v15.981l-13.739-7.99z" fill="#3A30E5"/><path d="m31.477 7.991 13.739 7.991-13.739 7.99V7.993z" fill="#3058E5"/><path d="M31.477 7.991v15.842l-13.739-7.991 13.739-7.85z" fill="#4067EE"/><path d="M31.617 7.99 17.88 15.983V0l13.738 7.99z" fill="#476EF9"/><path d="M17.738 15.981v15.982L4 23.973l13.738-7.992z" fill="#624AF6"/><path d="M17.738 0v15.982L4 7.99 17.738 0z" fill="#4067EE"/><path d="M17.738 31.823v15.982L4 39.814l13.738-7.99z" fill="#7C3AED"/><path d="m31.477 23.832 13.739 7.99-13.739 7.992V23.832z" fill="#4F46E5"/><path d="m4 23.832 13.738 7.99L4 39.815V23.832z" fill="#814AF7"/><path d="m4 7.991 13.738 7.991L4 23.972V7.993z" fill="#3058E5"/><path d="M31.477 23.832v15.982l-13.739-7.991 13.739-7.991z" fill="#624AF6"/><path d="m31.477 23.832 13.739-7.991v15.981l-13.739-7.99z" fill="#3A30E5"/><path d="m31.477 7.991 13.739 7.991-13.739 7.99V7.993z" fill="#3058E5"/><path d="M31.477 7.991v15.842l-13.739-7.991 13.739-7.85z" fill="#4067EE"/><path d="M31.617 7.99 17.88 15.983V0l13.738 7.99z" fill="#476EF9"/><path d="M17.738 15.981v15.982L4 23.973l13.738-7.992z" fill="#624AF6"/><path d="M17.738 0v15.982L4 7.99 17.738 0z" fill="#4067EE"/><path d="M17.738 31.823v15.982L4 39.814l13.738-7.99z" fill="#7C3AED"/><path d="m31.477 23.832 13.739 7.99-13.739 7.992V23.832z" fill="#4F46E5"/><path d="m4 23.832 13.738 7.99L4 39.815V23.832z" fill="#814AF7"/><path d="m4 7.991 13.738 7.991L4 23.972V7.993z" fill="#3058E5"/><path d="M31.477 23.832v15.982l-13.739-7.991 13.739-7.991z" fill="#624AF6"/></svg>