<svg width="48" height="48" fill="none" xmlns="http://www.w3.org/2000/svg"><g clip-path="url(#a)" fill-rule="evenodd" clip-rule="evenodd"><path d="M38.164 3.934H9.836a5.902 5.902 0 0 0-5.902 5.902v28.328a5.902 5.902 0 0 0 5.902 5.902h28.328a5.902 5.902 0 0 0 5.901-5.902V9.836a5.902 5.902 0 0 0-5.901-5.902zM9.836 0C4.404 0 0 4.404 0 9.836v28.328C0 43.596 4.404 48 9.836 48h28.328C43.596 48 48 43.596 48 38.164V9.836C48 4.404 43.596 0 38.164 0H9.836z" fill="url(#b)"/><path d="M29.005 15.102a3.975 3.975 0 0 0-.293-.237c-.888-.654-2.094-.981-3.616-.981-1.035 0-1.91.146-2.622.44-.712.282-1.26.678-1.64 1.185-.409.56-1.105 1.014-1.708.67a6.119 6.119 0 0 1-2.839-3.586c-.127-.433-.014-.905.326-1.2.761-.66 1.65-1.217 2.669-1.668 1.718-.761 3.67-1.142 5.857-1.142 2.226 0 4.169.38 5.829 1.142 1.669.761 2.967 1.82 3.895 3.178a8 8 0 0 1 .837 1.575c.65 1.643-.85 3.14-2.616 3.14-1.379 0-2.482-1.031-3.525-2.005-.186-.175-.37-.347-.555-.511zm-9.079 3.248c.262-.102.542.053.689.293.253.4.6.747 1.04 1.04.439.283.946.532 1.522.747.576.204 1.191.38 1.845.527l2.695.644c1.308.293 2.509.683 3.602 1.172 1.093.488 2.04 1.088 2.84 1.8.801.713 1.421 1.553 1.86 2.52.45.966.68 2.074.689 3.323-.01 1.836-.478 3.427-1.406 4.774-.918 1.338-2.245 2.377-3.983 3.12-1.728.731-3.812 1.098-6.253 1.098-2.42 0-4.53-.371-6.326-1.113-1.786-.742-3.182-1.84-4.188-3.295a8.486 8.486 0 0 1-1.084-2.273c-.52-1.68.965-3.16 2.724-3.16h.228c1.52 0 2.65 1.305 3.565 2.519.517.664 1.206 1.166 2.065 1.508.869.332 1.85.498 2.943.498 1.074 0 2.006-.156 2.797-.469.8-.312 1.42-.746 1.86-1.303a3.01 3.01 0 0 0 .659-1.918c0-.674-.2-1.24-.6-1.699-.391-.459-.967-.85-1.729-1.171-.751-.323-1.674-.615-2.767-.879l-3.266-.82c-2.142-.521-3.902-1.29-5.28-2.31-.373-.275-.51-.76-.38-1.204a6.114 6.114 0 0 1 3.64-3.968zm-3.88-4.136-.287-.975a.204.204 0 0 0-.391 0l-.287.975a4.076 4.076 0 0 1-2.76 2.759l-.975.287c-.195.058-.195.334 0 .391l.975.287a4.076 4.076 0 0 1 2.76 2.76l.287.975c.057.195.333.195.391 0l.287-.975a4.076 4.076 0 0 1 2.76-2.76l.975-.287c.195-.057.195-.334 0-.39l-.975-.288a4.076 4.076 0 0 1-2.76-2.76zm-3.478 5.759.086.292a1.224 1.224 0 0 0 .828.828l.292.086c.059.018.059.1 0 .118l-.293.086a1.222 1.222 0 0 0-.827.828l-.086.292c-.018.059-.1.059-.118 0l-.086-.293a1.223 1.223 0 0 0-.828-.827l-.292-.086c-.059-.018-.059-.1 0-.118l.292-.086a1.224 1.224 0 0 0 .828-.828l.086-.292a.06.06 0 0 1 .096-.032.06.06 0 0 1 .022.032zm-.561-7.958-.134-.455a.095.095 0 0 0-.183 0l-.133.455a1.902 1.902 0 0 1-1.288 1.288l-.455.133c-.092.027-.092.156 0 .183l.455.134a1.902 1.902 0 0 1 1.287 1.288l.134.455c.027.09.156.09.183 0l.134-.455a1.902 1.902 0 0 1 1.287-1.288l.456-.134c.09-.027.09-.156 0-.182l-.455-.134a1.902 1.902 0 0 1-1.288-1.288z" fill="url(#c)"/></g><defs><linearGradient id="b" x1="3.126" y1="47.437" x2="18.756" y2="-6.944" gradientUnits="userSpaceOnUse"><stop stop-color="#C639FF"/><stop offset="1" stop-color="#3662FF"/></linearGradient><linearGradient id="c" x1="11.501" y1="39.046" x2="22.714" y2="4.923" gradientUnits="userSpaceOnUse"><stop stop-color="#C639FF"/><stop offset="1" stop-color="#3662FF"/></linearGradient><clipPath id="a"><path fill="#fff" d="M0 0h48v48H0z"/></clipPath></defs></svg>