<svg width="48" height="48" fill="none" xmlns="http://www.w3.org/2000/svg"><path fill-rule="evenodd" clip-rule="evenodd" d="M24 48c13.255 0 24-10.745 24-24S37.255 0 24 0 0 10.745 0 24s10.745 24 24 24zm.103-36c-1.927 0-4.594 1.102-5.956 2.461l-3.701 3.693h18.447L39.06 12H24.103zm5.72 21.538C28.458 34.898 25.792 36 23.865 36H8.908l6.168-6.154h18.447l-3.7 3.692zm5.995-12.307h-24.45l-1.155 1.153C7.48 24.846 8.29 26.77 12.12 26.77h24.515l1.155-1.154c2.708-2.447 1.857-4.384-1.972-4.384z" fill="#D54407"/></svg>