<svg width="20" height="20" fill="none" xmlns="http://www.w3.org/2000/svg"><path d="M10 2.5v3.333m0 0h2.5m-2.5 0V10m0 7.5v-3.333m0 0V10m0 4.167h2.5m0-8.334c0 .92.746 1.667 1.667 1.667h1.666a1.667 1.667 0 1 0 0-3.333h-1.666c-.92 0-1.667.746-1.667 1.666zM10 10H7.5m0 0c0 .92-.746 1.667-1.667 1.667H4.167a1.667 1.667 0 0 1 0-3.334h1.666c.92 0 1.667.746 1.667 1.667zm5 4.167c0 .92.746 1.666 1.667 1.666h1.666a1.667 1.667 0 1 0 0-3.333h-1.666c-.92 0-1.667.746-1.667 1.667z" stroke="#111827" stroke-width="1.25" stroke-linecap="round"/></svg>