<svg width="20" height="20" fill="none" xmlns="http://www.w3.org/2000/svg"><path d="M10 15.833c-1.917 0-5.333-.166-6.75-.5a1.65 1.65 0 0 1-1.167-1.166c-.25-.917-.416-2.834-.416-4.167 0-1.333.166-3.25.416-4.167.167-.583.584-1 1.167-1.166 1.417-.334 4.833-.5 6.75-.5 1.917 0 5.333.166 6.75.5.583.166 1 .583 1.167 1.166.25.917.416 2.834.416 4.167 0 1.333-.166 3.25-.416 4.167a1.65 1.65 0 0 1-1.167 1.166c-1.417.334-4.833.5-6.75.5z" stroke="#111827" stroke-width="1.25" stroke-linecap="round" stroke-linejoin="round"/><path d="M8.333 12.5 12.5 10 8.333 7.5v5z" stroke="#111827" stroke-width="1.25" stroke-linecap="round" stroke-linejoin="round"/></svg>