<svg width="20" height="20" fill="none" xmlns="http://www.w3.org/2000/svg"><g clip-path="url(#a)"><path d="m18 13.5 1 1-1 1M2 5.5l-1 1 1 1" stroke="#111827" stroke-width="1.25" stroke-linecap="round" stroke-linejoin="round"/><g clip-path="url(#b)" fill-rule="evenodd" clip-rule="evenodd" fill="#111827"><path d="M8.745 9c-.375 0-.619.118-.836.514l-.994 1.81V9.716c0-.48-.235-.716-.671-.716-.436 0-.619.143-.837.547l-.94 1.777V9.733c0-.514-.219-.733-.75-.733h-1.08C2.226 9 2 9.185 2 9.522s.218.54.619.54h.444v2.029c0 .572.401.909.976.909s.837-.219 1.124-.733l.628-1.136v.96c0 .564.383.909.967.909s.802-.194 1.133-.733L9.338 9.91C9.65 9.396 9.434 9 8.736 9h.01zM11.464 9c-1.185 0-2.082.85-2.082 2.004S10.288 13 11.464 13c1.177 0 2.075-.85 2.083-1.996 0-1.153-.906-2.004-2.083-2.004zm0 2.77c-.444 0-.75-.32-.75-.766s.306-.774.75-.774c.445 0 .75.328.75.774 0 .447-.296.767-.75.767zM15.918 9c-1.177 0-2.083.85-2.083 2.004S14.74 13 15.917 13C17.095 13 18 12.15 18 11.004 18 9.86 17.094 9 15.918 9zm0 2.77c-.454 0-.741-.32-.741-.766s.296-.774.74-.774c.445 0 .75.328.75.774 0 .447-.296.767-.75.767z"/></g></g><defs><clipPath id="a"><path fill="#fff" d="M0 0h20v20H0z"/></clipPath><clipPath id="b"><path fill="#fff" transform="translate(2 9)" d="M0 0h16v4H0z"/></clipPath></defs></svg>