<svg width="20" height="20" fill="none" xmlns="http://www.w3.org/2000/svg"><path d="M10 15.833c-1.917 0-5.333-.166-6.75-.5a1.65 1.65 0 0 1-1.167-1.166c-.25-.917-.417-2.834-.417-4.167 0-1.333.167-3.25.417-4.167.167-.583.583-1 1.167-1.166 1.417-.334 4.833-.5 6.75-.5 1.916 0 5.333.166 6.75.5.583.166 1 .583 1.166 1.166.25.917.417 2.834.417 4.167 0 1.333-.166 3.25-.416 4.167a1.65 1.65 0 0 1-1.167 1.166c-1.417.334-4.834.5-6.75.5z" stroke="#111827" stroke-width="1.25" stroke-linecap="round" stroke-linejoin="round"/><path d="M5 12.5 9.167 10 5 7.5v5z" stroke="#111827" stroke-width="1.25" stroke-linecap="round" stroke-linejoin="round"/><path d="M12.5 9.881s.156-.119.625-.119.781.238 1.25.238.625-.119.625-.119V8.452s-.156.12-.625.12-.781-.239-1.25-.239-.625.12-.625.12V9.88zM12.5 11.667V10" stroke="#111827" stroke-linecap="round" stroke-linejoin="round"/></svg>