<?xml version="1.0" encoding="UTF-8" standalone="no"?>
<!DOCTYPE svg PUBLIC "-//W3C//DTD SVG 1.1//EN" "http://www.w3.org/Graphics/SVG/1.1/DTD/svg11.dtd">
<svg width="100%" height="100%" viewBox="0 0 175 88" version="1.1" xmlns="http://www.w3.org/2000/svg" xmlns:xlink="http://www.w3.org/1999/xlink" xml:space="preserve" xmlns:serif="http://www.serif.com/" style="fill-rule:evenodd;clip-rule:evenodd;stroke-linejoin:round;stroke-miterlimit:2;">
    <g transform="matrix(1,0,0,1,-12.6452,-56.3952)">
        <path d="M58.05,68.38C56.429,65.881 54.257,63.787 51.7,62.26C50.174,61.36 48.507,60.724 46.77,60.38C45.022,60.033 43.229,59.969 41.46,60.19C27.4,62.25 22.94,72.61 21.51,78.7C22.982,77.712 24.612,76.981 26.33,76.54C29.215,75.81 32.23,75.755 35.14,76.38C36.762,76.704 38.344,77.2 39.86,77.86C41.933,78.754 43.882,79.91 45.66,81.3C47.267,80.388 48.984,79.685 50.77,79.21C51.094,76.955 51.63,74.735 52.37,72.58L52.43,72.42C53.699,72.247 54.979,72.16 56.26,72.16C57.574,72.162 58.886,72.246 60.19,72.41C59.614,70.998 58.897,69.648 58.05,68.38Z" style="fill:url(#_Linear1);fill-rule:nonzero;"/>
    </g>
    <g transform="matrix(1,0,0,1,-12.6452,-56.3952)">
        <path d="M54.45,131.62C56.07,134.116 58.238,136.209 60.79,137.74C62.319,138.64 63.989,139.276 65.73,139.62C67.478,139.967 69.271,140.031 71.04,139.81C85.1,137.75 89.56,127.39 91,121.3C89.528,122.288 87.898,123.019 86.18,123.46C83.291,124.19 80.273,124.245 77.36,123.62C75.739,123.293 74.157,122.797 72.64,122.14C70.572,121.244 68.626,120.088 66.85,118.7C65.243,119.612 63.526,120.315 61.74,120.79C61.416,123.045 60.88,125.265 60.14,127.42L60.08,127.58C58.811,127.753 57.531,127.84 56.25,127.84C54.933,127.838 53.617,127.754 52.31,127.59C52.891,129 53.607,130.349 54.45,131.62Z" style="fill:url(#_Linear2);fill-rule:nonzero;"/>
    </g>
    <g transform="matrix(1,0,0,1,-12.6452,-56.3952)">
        <path d="M35.17,76.37C32.257,75.745 29.239,75.8 26.35,76.53C24.633,76.973 23.004,77.704 21.53,78.69C20.046,79.675 18.735,80.898 17.65,82.31C9.16,93.71 13.33,104.19 16.65,109.5C16.986,107.762 17.619,106.094 18.52,104.57C20.047,102.013 22.141,99.841 24.64,98.22C26.011,97.309 27.472,96.542 29,95.93C31.093,95.098 33.284,94.537 35.52,94.26C36.012,92.482 36.732,90.774 37.66,89.18C36.303,87.351 35.115,85.403 34.11,83.36C34.083,83.309 34.059,83.255 34.04,83.2C34.811,82.179 35.653,81.213 36.56,80.31C37.502,79.375 38.504,78.503 39.56,77.7C38.143,77.116 36.673,76.67 35.17,76.37Z" style="fill:url(#_Linear3);fill-rule:nonzero;"/>
    </g>
    <g transform="matrix(1,0,0,1,-12.6452,-56.3952)">
        <path d="M77.33,123.63C80.243,124.255 83.261,124.2 86.15,123.47C87.877,123.03 89.517,122.299 91,121.31C92.484,120.325 93.795,119.102 94.88,117.69C103.37,106.29 99.2,95.81 95.88,90.5C95.54,92.239 94.905,93.907 94,95.43C92.473,97.987 90.379,100.159 87.88,101.78C86.5,102.693 85.028,103.46 83.49,104.07C81.406,104.9 79.225,105.461 77,105.74C76.515,107.519 75.799,109.227 74.87,110.82C76.227,112.649 77.415,114.597 78.42,116.64L78.49,116.8C77.719,117.821 76.877,118.787 75.97,119.69C75.028,120.625 74.026,121.497 72.97,122.3C74.377,122.882 75.837,123.328 77.33,123.63Z" style="fill:url(#_Linear4);fill-rule:nonzero;"/>
    </g>
    <g transform="matrix(1,0,0,1,-12.6452,-56.3952)">
        <path d="M24.63,98.2C22.131,99.821 20.037,101.993 18.51,104.55C17.61,106.076 16.974,107.743 16.63,109.48C16.273,111.227 16.208,113.022 16.44,114.79C18.5,128.85 28.86,133.31 34.95,134.79C33.962,133.318 33.231,131.688 32.79,129.97C32.062,127.085 32.003,124.071 32.62,121.16C32.953,119.536 33.453,117.951 34.11,116.43C35.006,114.362 36.162,112.416 37.55,110.64C36.634,109.035 35.931,107.317 35.46,105.53C33.205,105.206 30.985,104.67 28.83,103.93L28.67,103.87C28.497,102.601 28.41,101.321 28.41,100.04C28.413,98.723 28.496,97.407 28.66,96.1C27.252,96.668 25.902,97.371 24.63,98.2Z" style="fill:url(#_Linear5);fill-rule:nonzero;"/>
    </g>
    <g transform="matrix(1,0,0,1,-12.6452,-56.3952)">
        <path d="M87.87,101.8C90.372,100.181 92.47,98.008 94,95.45C94.901,93.926 95.534,92.258 95.87,90.52C96.227,88.773 96.294,86.979 96.07,85.21C94,71.15 83.64,66.69 77.55,65.26C78.538,66.732 79.269,68.362 79.71,70.08C80.44,72.965 80.495,75.98 79.87,78.89C79.545,80.514 79.049,82.1 78.39,83.62C77.509,85.686 76.37,87.631 75,89.41C75.881,91.021 76.553,92.739 77,94.52C79.255,94.844 81.475,95.38 83.63,96.12L83.79,96.18C83.963,97.449 84.05,98.729 84.05,100.01C84.047,101.327 83.964,102.643 83.8,103.95C85.224,103.368 86.587,102.648 87.87,101.8Z" style="fill:url(#_Linear6);fill-rule:nonzero;"/>
    </g>
    <g transform="matrix(1,0,0,1,-12.6452,-56.3952)">
        <path d="M32.62,121.08C31.995,123.993 32.05,127.011 32.78,129.9C33.223,131.617 33.954,133.246 34.94,134.72C35.925,136.204 37.148,137.515 38.56,138.6C49.96,147.09 60.44,142.92 65.75,139.6C64.012,139.264 62.344,138.631 60.82,137.73C58.263,136.203 56.091,134.109 54.47,131.61C53.557,130.23 52.79,128.758 52.18,127.22C51.347,125.124 50.785,122.929 50.51,120.69C48.731,120.205 47.023,119.489 45.43,118.56C43.601,119.917 41.653,121.105 39.61,122.11L39.45,122.18C38.429,121.409 37.463,120.567 36.56,119.66C35.625,118.718 34.753,117.716 33.95,116.66C33.364,118.087 32.919,119.567 32.62,121.08Z" style="fill:url(#_Linear7);fill-rule:nonzero;"/>
    </g>
    <g transform="matrix(1,0,0,1,-12.6452,-56.3952)">
        <path d="M79.88,78.92C80.5,76.006 80.445,72.989 79.72,70.1C79.277,68.383 78.546,66.754 77.56,65.28C76.575,63.796 75.352,62.485 73.94,61.4C62.54,52.91 52.06,57.08 46.75,60.4C48.488,60.736 50.156,61.369 51.68,62.27C54.224,63.795 56.386,65.882 58,68.37C58.913,69.75 59.68,71.222 60.29,72.76C61.137,74.855 61.712,77.049 62,79.29C63.779,79.775 65.487,80.491 67.08,81.42C68.909,80.063 70.857,78.875 72.9,77.87L73.06,77.8C74.081,78.571 75.047,79.413 75.95,80.32C76.882,81.264 77.754,82.266 78.56,83.32C79.141,81.9 79.583,80.426 79.88,78.92Z" style="fill:url(#_Linear8);fill-rule:nonzero;"/>
    </g>
    <g transform="matrix(1,0,0,1,-12.6452,-56.3952)">
        <path d="M127.85,82.58L127.85,84.21C127.85,85.89 127.24,86.95 126.01,87.41C127.34,87.81 128.01,88.9 128.01,90.66L128.01,92.42C128.01,95.173 126.55,96.547 123.63,96.54L117.85,96.54L117.85,78.46L123.47,78.46C126.39,78.46 127.85,79.833 127.85,82.58ZM123,81.15L121,81.15L121,86L123,86C124.16,86 124.74,85.45 124.74,84.36L124.74,82.76C124.74,81.69 124.16,81.15 123,81.15ZM124.9,92.24L124.9,90.47C124.9,89.38 124.32,88.83 123.16,88.83L121,88.83L121,93.83L123.14,93.83C124.32,93.85 124.9,93.31 124.9,92.24Z" style="fill:rgb(57,57,139);fill-rule:nonzero;"/>
    </g>
    <g transform="matrix(1,0,0,1,-12.6452,-56.3952)">
        <path d="M129.92,85.11C129.847,83.954 130.274,82.821 131.09,82C133.227,80.509 136.083,80.509 138.22,82C139.026,82.812 139.451,83.928 139.39,85.07L139.39,92.57C139.458,93.713 139.031,94.832 138.22,95.64C136.083,97.131 133.227,97.131 131.09,95.64C130.279,94.832 129.852,93.713 129.92,92.57L129.92,85.11ZM136.25,85.19C136.184,84.362 135.485,83.716 134.655,83.716C133.825,83.716 133.126,84.362 133.06,85.19L133.06,92.53C133.126,93.358 133.825,94.004 134.655,94.004C135.485,94.004 136.184,93.358 136.25,92.53L136.25,85.19Z" style="fill:rgb(57,57,139);fill-rule:nonzero;"/>
    </g>
    <g transform="matrix(1,0,0,1,-12.6452,-56.3952)">
        <path d="M147.65,81.1L148.18,81.1L148.18,84.1L147.47,84.1C146.532,84.104 145.616,84.378 144.83,84.89L144.83,96.54L141.63,96.54L141.63,81.18L144.63,81.18L144.63,82.26C145.14,81.93 145.5,81.71 145.69,81.6C146.288,81.263 146.964,81.09 147.65,81.1Z" style="fill:rgb(57,57,139);fill-rule:nonzero;"/>
    </g>
    <g transform="matrix(1,0,0,1,-12.6452,-56.3952)">
        <rect x="150" y="77.09" width="3.2" height="19.45" style="fill:rgb(57,57,139);fill-rule:nonzero;"/>
    </g>
    <g transform="matrix(1,0,0,1,-12.6452,-56.3952)">
        <path d="M156,81.55C157.299,81.176 158.649,81.008 160,81.05C161.302,80.933 162.599,81.324 163.62,82.14C164.436,83.032 164.846,84.225 164.75,85.43L164.75,96.54L161.75,96.54L161.75,95.43C160.209,96.902 157.795,97.018 156.12,95.7C155.479,94.903 155.167,93.89 155.25,92.87L155.25,92C155.199,91.089 155.472,90.189 156.02,89.46C156.677,88.731 157.543,88.221 158.5,88L161.69,87.13L161.69,85.4C161.717,84.954 161.545,84.517 161.22,84.21C160.581,83.898 159.867,83.773 159.16,83.85C158.089,83.848 157.026,84.034 156.02,84.4L156,81.55ZM158.35,92.11L158.35,92.87C158.35,93.77 158.81,94.22 159.75,94.22C160.429,94.234 161.095,94.031 161.65,93.64L161.65,89.78L159.77,90.31C159.333,90.389 158.931,90.602 158.62,90.92C158.415,91.281 158.328,91.697 158.37,92.11L158.35,92.11Z" style="fill:rgb(57,57,139);fill-rule:nonzero;"/>
    </g>
    <g transform="matrix(1,0,0,1,-12.6452,-56.3952)">
        <path d="M167.34,77.09L170.51,77.09L170.51,81.6C171.447,81.265 172.435,81.096 173.43,81.1C174.333,81.057 175.219,81.365 175.9,81.96C176.55,82.631 176.885,83.548 176.82,84.48L176.82,92.66C176.901,93.737 176.506,94.798 175.74,95.56C174.935,96.255 173.892,96.613 172.83,96.56L167.34,96.56L167.34,77.09ZM173.6,85.16C173.6,84.41 173.19,84.03 172.39,84.03C171.746,84.032 171.112,84.186 170.54,84.48L170.54,93.61L172,93.61C173,93.61 173.58,93.14 173.58,92.21L173.6,85.16Z" style="fill:rgb(57,57,139);fill-rule:nonzero;"/>
    </g>
    <g transform="matrix(1,0,0,1,-12.6452,-56.3952)">
        <path d="M178.62,85.09C178.546,83.963 178.983,82.86 179.81,82.09C180.95,81.322 182.321,80.969 183.69,81.09C184.742,81.075 185.79,81.216 186.8,81.51L186.8,84.33C185.93,84.04 185.017,83.898 184.1,83.91C183.439,83.841 182.771,83.955 182.17,84.24C181.863,84.506 181.702,84.905 181.74,85.31L181.74,85.68C181.722,85.978 181.81,86.272 181.99,86.51C182.282,86.811 182.619,87.064 182.99,87.26L185.18,88.56C186.481,89.173 187.33,90.472 187.37,91.91L187.37,92.6C187.37,95.34 185.573,96.71 181.98,96.71C180.862,96.728 179.746,96.604 178.66,96.34L178.66,93.43C179.586,93.699 180.546,93.831 181.51,93.82C182.234,93.88 182.961,93.763 183.63,93.48C183.989,93.278 184.209,92.892 184.2,92.48L184.2,92.11C184.215,91.801 184.107,91.499 183.9,91.27C183.514,90.924 183.083,90.632 182.62,90.4L180.62,89.23C179.366,88.592 178.586,87.286 178.62,85.88L178.62,85.09Z" style="fill:rgb(57,57,139);fill-rule:nonzero;"/>
    </g>
    <g transform="matrix(1,0,0,1,-12.6452,-56.3952)">
        <path d="M117.59,110.58C117.529,109.394 118.034,108.247 118.95,107.49C120.149,106.662 121.597,106.27 123.05,106.38C124.136,106.369 125.219,106.504 126.27,106.78L126.27,109.68C125.296,109.392 124.286,109.241 123.27,109.23C122.577,109.153 121.877,109.296 121.27,109.64C120.915,109.933 120.721,110.38 120.75,110.84L120.75,120.27C120.75,121.34 121.52,121.88 123.05,121.88C124.156,121.906 125.259,121.761 126.32,121.45L126.32,124.33C125.226,124.611 124.099,124.746 122.97,124.73C119.363,124.73 117.56,123.34 117.56,120.56L117.59,110.58Z" style="fill:rgb(57,57,139);fill-rule:nonzero;"/>
    </g>
    <g transform="matrix(1,0,0,1,-12.6452,-56.3952)">
        <path d="M128.08,113.17C128.012,112.022 128.442,110.899 129.26,110.09C131.394,108.601 134.246,108.601 136.38,110.09C137.198,110.899 137.628,112.022 137.56,113.17L137.56,120.66C137.628,121.808 137.198,122.931 136.38,123.74C134.246,125.229 131.394,125.229 129.26,123.74C128.442,122.931 128.012,121.808 128.08,120.66L128.08,113.17ZM134.42,113.25C134.42,112.372 133.698,111.65 132.82,111.65C131.942,111.65 131.22,112.372 131.22,113.25L131.22,120.58C131.22,121.458 131.942,122.18 132.82,122.18C133.698,122.18 134.42,121.458 134.42,120.58L134.42,113.25Z" style="fill:rgb(57,57,139);fill-rule:nonzero;"/>
    </g>
    <g transform="matrix(1,0,0,1,-12.6452,-56.3952)">
        <path d="M139.61,113.17C139.547,112.025 139.973,110.905 140.78,110.09C142.917,108.599 145.773,108.599 147.91,110.09C148.717,110.905 149.143,112.025 149.08,113.17L149.08,120.66C149.14,121.805 148.715,122.924 147.91,123.74C145.773,125.231 142.917,125.231 140.78,123.74C139.975,122.924 139.55,121.805 139.61,120.66L139.61,113.17ZM145.94,113.25C145.874,112.422 145.175,111.776 144.345,111.776C143.515,111.776 142.816,112.422 142.75,113.25L142.75,120.58C142.816,121.408 143.515,122.054 144.345,122.054C145.175,122.054 145.874,121.408 145.94,120.58L145.94,113.25Z" style="fill:rgb(57,57,139);fill-rule:nonzero;"/>
    </g>
    <g transform="matrix(1,0,0,1,-12.6452,-56.3952)">
        <path d="M151.32,105.14L154.41,105.14L154.41,124.59L151.32,124.59L151.32,105.14ZM157.26,109.23L160.46,109.23L157.79,116.55L160.79,124.55L157.41,124.55L154.64,116.37L157.26,109.23Z" style="fill:rgb(57,57,139);fill-rule:nonzero;"/>
    </g>
    <g transform="matrix(1,0,0,1,-12.6452,-56.3952)">
        <path d="M164.27,108.31C163.06,108.31 162.46,107.73 162.46,106.57C162.46,105.41 163.06,104.83 164.27,104.83C165.225,104.83 166.01,105.615 166.01,106.57C166.01,107.525 165.225,108.31 164.27,108.31ZM162.67,109.52L165.86,109.52L165.86,124.59L162.67,124.59L162.67,109.52Z" style="fill:rgb(57,57,139);fill-rule:nonzero;"/>
    </g>
    <g transform="matrix(1,0,0,1,-12.6452,-56.3952)">
        <path d="M168,120.4L168,113.17C167.932,112.022 168.362,110.899 169.18,110.09C170.172,109.268 171.446,108.866 172.73,108.97C173.996,108.861 175.254,109.265 176.22,110.09C177,110.919 177.405,112.034 177.34,113.17L177.34,118.23L171.09,118.23L171.09,120.16C171.041,120.678 171.246,121.19 171.64,121.53C172.284,121.883 173.019,122.033 173.75,121.96C174.836,121.953 175.915,121.781 176.95,121.45L176.95,124.28C175.764,124.604 174.539,124.762 173.31,124.75C169.77,124.75 168,123.3 168,120.4ZM171.09,115.75L174.39,115.75L174.39,113.19C174.39,112.19 173.84,111.64 172.74,111.64C171.64,111.64 171.09,112.15 171.09,113.19L171.09,115.75Z" style="fill:rgb(57,57,139);fill-rule:nonzero;"/>
    </g>
    <defs>
        <linearGradient id="_Linear1" x1="0" y1="0" x2="1" y2="0" gradientUnits="userSpaceOnUse" gradientTransform="matrix(38.68,0,0,38.68,21.51,70.67)"><stop offset="0" style="stop-color:rgb(254,233,88);stop-opacity:1"/><stop offset="1" style="stop-color:rgb(252,139,66);stop-opacity:1"/></linearGradient>
        <linearGradient id="_Linear2" x1="0" y1="0" x2="1" y2="0" gradientUnits="userSpaceOnUse" gradientTransform="matrix(-38.68,4.73693e-15,-4.73693e-15,-38.68,90.98,129.33)"><stop offset="0" style="stop-color:rgb(245,186,103);stop-opacity:1"/><stop offset="1" style="stop-color:rgb(224,70,140);stop-opacity:1"/></linearGradient>
        <linearGradient id="_Linear3" x1="0" y1="0" x2="1" y2="0" gradientUnits="userSpaceOnUse" gradientTransform="matrix(27.3509,-27.3509,27.3509,27.3509,10.9549,103.824)"><stop offset="0" style="stop-color:rgb(254,233,88);stop-opacity:1"/><stop offset="1" style="stop-color:rgb(252,139,66);stop-opacity:1"/></linearGradient>
        <linearGradient id="_Linear4" x1="0" y1="0" x2="1" y2="0" gradientUnits="userSpaceOnUse" gradientTransform="matrix(-27.3509,27.3509,-27.3509,-27.3509,101.553,96.1765)"><stop offset="0" style="stop-color:rgb(250,210,95);stop-opacity:1"/><stop offset="1" style="stop-color:rgb(224,70,140);stop-opacity:1"/></linearGradient>
        <linearGradient id="_Linear5" x1="0" y1="0" x2="1" y2="0" gradientUnits="userSpaceOnUse" gradientTransform="matrix(2.36847e-15,-38.68,38.68,2.36847e-15,26.92,134.73)"><stop offset="0" style="stop-color:rgb(250,210,95);stop-opacity:1"/><stop offset="0.18" style="stop-color:rgb(249,202,98);stop-opacity:1"/><stop offset="0.45" style="stop-color:rgb(245,180,105);stop-opacity:1"/><stop offset="0.78" style="stop-color:rgb(238,144,116);stop-opacity:1"/><stop offset="1" style="stop-color:rgb(233,117,125);stop-opacity:1"/></linearGradient>
        <linearGradient id="_Linear6" x1="0" y1="0" x2="1" y2="0" gradientUnits="userSpaceOnUse" gradientTransform="matrix(2.36908e-15,38.69,-38.69,2.36908e-15,85.57,65.26)"><stop offset="0" style="stop-color:rgb(250,210,95);stop-opacity:1"/><stop offset="0.15" style="stop-color:rgb(248,202,98);stop-opacity:1"/><stop offset="0.38" style="stop-color:rgb(244,180,105);stop-opacity:1"/><stop offset="0.67" style="stop-color:rgb(238,144,116);stop-opacity:1"/><stop offset="0.99" style="stop-color:rgb(228,95,133);stop-opacity:1"/><stop offset="1" style="stop-color:rgb(228,93,133);stop-opacity:1"/></linearGradient>
        <linearGradient id="_Linear7" x1="0" y1="0" x2="1" y2="0" gradientUnits="userSpaceOnUse" gradientTransform="matrix(-27.3509,-27.3509,27.3509,-27.3509,60.0733,145.299)"><stop offset="0" style="stop-color:rgb(241,163,110);stop-opacity:1"/><stop offset="1" style="stop-color:rgb(224,70,140);stop-opacity:1"/></linearGradient>
        <linearGradient id="_Linear8" x1="0" y1="0" x2="1" y2="0" gradientUnits="userSpaceOnUse" gradientTransform="matrix(27.3509,27.3509,-27.3509,27.3509,52.4186,54.6973)"><stop offset="0" style="stop-color:rgb(254,233,88);stop-opacity:1"/><stop offset="0.16" style="stop-color:rgb(252,221,92);stop-opacity:1"/><stop offset="0.45" style="stop-color:rgb(246,191,101);stop-opacity:1"/><stop offset="0.83" style="stop-color:rgb(237,141,117);stop-opacity:1"/><stop offset="1" style="stop-color:rgb(233,117,125);stop-opacity:1"/></linearGradient>
    </defs>
</svg>
